<mxfile host="app.diagrams.net" modified="2022-04-01T02:56:21.256Z" agent="5.0 (Windows NT 10.0; Win64; x64) AppleWebKit/537.36 (KHTML, like Gecko) Chrome/99.0.4844.74 Safari/537.36 Edg/99.0.1150.55" etag="EwW5MlWASgDn8WTPw5x6" version="17.2.5" type="github">
  <diagram id="yAaFqfrEvrYgZtCyMZ2D" name="Page-1">
    <mxGraphModel dx="1038" dy="579" grid="1" gridSize="10" guides="1" tooltips="1" connect="1" arrows="1" fold="1" page="1" pageScale="1" pageWidth="850" pageHeight="1100" math="0" shadow="0">
      <root>
        <mxCell id="0" />
        <mxCell id="1" parent="0" />
        <mxCell id="Zf7nJqvtUE23uUViSQtA-6" value="" style="edgeStyle=orthogonalEdgeStyle;rounded=0;orthogonalLoop=1;jettySize=auto;html=1;" edge="1" parent="1" source="Zf7nJqvtUE23uUViSQtA-1" target="Zf7nJqvtUE23uUViSQtA-2">
          <mxGeometry relative="1" as="geometry" />
        </mxCell>
        <mxCell id="Zf7nJqvtUE23uUViSQtA-1" value="New promise&lt;br&gt;status - pending" style="rounded=1;whiteSpace=wrap;html=1;" vertex="1" parent="1">
          <mxGeometry x="140" y="170" width="120" height="60" as="geometry" />
        </mxCell>
        <mxCell id="Zf7nJqvtUE23uUViSQtA-7" value="yes" style="edgeStyle=orthogonalEdgeStyle;rounded=0;orthogonalLoop=1;jettySize=auto;html=1;entryX=0;entryY=0.5;entryDx=0;entryDy=0;" edge="1" parent="1" source="Zf7nJqvtUE23uUViSQtA-2" target="Zf7nJqvtUE23uUViSQtA-3">
          <mxGeometry relative="1" as="geometry" />
        </mxCell>
        <mxCell id="Zf7nJqvtUE23uUViSQtA-8" value="no" style="edgeStyle=orthogonalEdgeStyle;rounded=0;orthogonalLoop=1;jettySize=auto;html=1;entryX=-0.03;entryY=0.637;entryDx=0;entryDy=0;entryPerimeter=0;" edge="1" parent="1" source="Zf7nJqvtUE23uUViSQtA-2" target="Zf7nJqvtUE23uUViSQtA-4">
          <mxGeometry relative="1" as="geometry" />
        </mxCell>
        <mxCell id="Zf7nJqvtUE23uUViSQtA-2" value="verify Token" style="shape=parallelogram;perimeter=parallelogramPerimeter;whiteSpace=wrap;html=1;fixedSize=1;" vertex="1" parent="1">
          <mxGeometry x="320" y="170" width="120" height="60" as="geometry" />
        </mxCell>
        <mxCell id="Zf7nJqvtUE23uUViSQtA-10" style="edgeStyle=orthogonalEdgeStyle;rounded=0;orthogonalLoop=1;jettySize=auto;html=1;entryX=0.5;entryY=0;entryDx=0;entryDy=0;" edge="1" parent="1" source="Zf7nJqvtUE23uUViSQtA-3" target="Zf7nJqvtUE23uUViSQtA-5">
          <mxGeometry relative="1" as="geometry" />
        </mxCell>
        <mxCell id="Zf7nJqvtUE23uUViSQtA-11" value="return&amp;nbsp;" style="edgeStyle=orthogonalEdgeStyle;rounded=0;orthogonalLoop=1;jettySize=auto;html=1;entryX=0.5;entryY=0.167;entryDx=0;entryDy=0;entryPerimeter=0;exitX=0.5;exitY=0;exitDx=0;exitDy=0;" edge="1" parent="1" source="Zf7nJqvtUE23uUViSQtA-3" target="Zf7nJqvtUE23uUViSQtA-1">
          <mxGeometry relative="1" as="geometry" />
        </mxCell>
        <mxCell id="Zf7nJqvtUE23uUViSQtA-3" value="then callback" style="rounded=1;whiteSpace=wrap;html=1;" vertex="1" parent="1">
          <mxGeometry x="520" y="90" width="120" height="60" as="geometry" />
        </mxCell>
        <mxCell id="Zf7nJqvtUE23uUViSQtA-9" style="edgeStyle=orthogonalEdgeStyle;rounded=0;orthogonalLoop=1;jettySize=auto;html=1;entryX=0.5;entryY=1;entryDx=0;entryDy=0;" edge="1" parent="1" source="Zf7nJqvtUE23uUViSQtA-4" target="Zf7nJqvtUE23uUViSQtA-5">
          <mxGeometry relative="1" as="geometry" />
        </mxCell>
        <mxCell id="Zf7nJqvtUE23uUViSQtA-12" value="return" style="edgeStyle=orthogonalEdgeStyle;rounded=0;orthogonalLoop=1;jettySize=auto;html=1;entryX=0.5;entryY=1;entryDx=0;entryDy=0;exitX=0.5;exitY=1;exitDx=0;exitDy=0;" edge="1" parent="1" source="Zf7nJqvtUE23uUViSQtA-4" target="Zf7nJqvtUE23uUViSQtA-1">
          <mxGeometry relative="1" as="geometry" />
        </mxCell>
        <mxCell id="Zf7nJqvtUE23uUViSQtA-4" value="catch handling" style="rounded=1;whiteSpace=wrap;html=1;" vertex="1" parent="1">
          <mxGeometry x="520" y="220" width="120" height="60" as="geometry" />
        </mxCell>
        <mxCell id="Zf7nJqvtUE23uUViSQtA-5" value="end" style="ellipse;whiteSpace=wrap;html=1;aspect=fixed;" vertex="1" parent="1">
          <mxGeometry x="700" y="140" width="80" height="80" as="geometry" />
        </mxCell>
      </root>
    </mxGraphModel>
  </diagram>
</mxfile>
